<svg width="404" height="161" viewBox="0 0 404 161" fill="none" xmlns="http://www.w3.org/2000/svg">
<path d="M24.7239 53.9896C25.0104 53.4635 25.3802 52.9479 26.1562 52.5573L37.2396 46.1406C37.3958 46.0573 37.5573 45.9896 37.7344 45.9427C37.7864 45.9323 37.8437 45.9323 37.9062 45.9219C38.0208 45.901 38.1354 45.8802 38.25 45.8802H38.2708V45.8854C38.5989 45.8906 38.9219 45.9792 39.2031 46.1458L64.1458 60.5729L64.1719 60.526L66.1823 61.6927C68.6094 63.0938 71.5989 63.0938 74.026 61.6927L84.9271 55.3906C85.5312 55.0365 85.9062 54.3906 85.9062 53.6875C85.9062 52.9844 85.5312 52.3385 84.9271 51.9844L74.026 45.6875C71.5989 44.2813 68.6094 44.2813 66.1823 45.6875L63.5573 47.2031C62.9531 47.5521 62.2083 47.5521 61.5989 47.2031L51.4427 41.3333C50.8385 40.9792 50.4635 40.3333 50.4635 39.6302C50.4635 38.9323 50.8385 38.2813 51.4427 37.9323L66.1823 29.4063C68.6094 28.0052 71.5989 28.0052 74.026 29.4063L110.13 50.2865C112.745 51.7969 112.745 55.5729 110.13 57.0885L74.026 77.9688C71.5989 79.3698 68.6094 79.3698 66.1823 77.9688L38.2708 61.8229V98.599L47.2396 103.802L66.1823 114.792C66.7864 115.135 67.4219 115.396 68.0937 115.578C70.0937 116.109 72.2239 115.823 74.026 114.792L99.9791 99.7813C101.193 99.0781 101.937 97.7813 101.937 96.3802V74.9427C101.937 74.2448 102.312 73.5938 102.922 73.2448L113.073 67.3698C113.677 67.0156 114.427 67.0156 115.031 67.3698C115.641 67.7188 116.01 68.3698 116.01 69.0729V104.521C116.01 105.922 115.266 107.214 114.052 107.922L74.026 131.068C72.8489 131.75 71.5156 132.104 70.1562 132.115H70.1302C69.9375 132.115 69.75 132.094 69.5573 132.083C69.4114 132.073 69.2604 132.073 69.1146 132.057C68.9114 132.026 68.7083 131.979 68.5104 131.938C68.375 131.906 68.2396 131.891 68.1094 131.859C67.8906 131.802 67.6823 131.719 67.4739 131.646C67.3541 131.599 67.2396 131.573 67.1302 131.531C66.8073 131.396 66.4896 131.245 66.1875 131.068L31.651 111.099L26.1771 107.984C24.9531 107.292 24.1927 105.984 24.1927 104.573V55.9531C24.1927 55.25 24.3854 54.5781 24.7239 53.9896Z" fill="#AD4EA4"/>
<path d="M66.2812 17.6614C67.4479 16.9896 68.7604 16.6302 70.1042 16.6198C71.4427 16.6302 72.7604 16.9896 73.9271 17.6614L122.161 45.5573C124.578 46.9583 126.068 49.5417 126.068 52.3385V108.13C126.068 110.927 124.578 113.516 122.161 114.911L73.9271 142.802C72.7448 143.49 71.4115 143.849 70.0469 143.854C68.6875 143.849 67.349 143.49 66.1667 142.807L18.1458 115.036C15.7292 113.641 14.2344 111.057 14.2344 108.255V92.1354C14.2396 91.4323 13.8646 90.7865 13.2604 90.4375L3.03645 84.526C2.43228 84.1771 1.68228 84.1771 1.08332 84.526C0.473948 84.875 0.104156 85.5208 0.104156 86.224V116.25C0.109364 117.531 0.427073 118.792 1.02603 119.917C1.18228 120.656 1.98436 121.526 3.12499 122.422C3.14582 122.443 3.17707 122.464 3.20311 122.484C6.09374 124.74 10.8698 127.062 11.7187 127.552L66.1667 159.042C67.3854 159.74 68.776 160.104 70.1823 160.083H70.2396V160.078C71.5364 160.047 72.8073 159.687 73.9271 159.042L136.193 123.031C138.615 121.63 140.104 119.047 140.104 116.25V44.2292C140.104 42.9687 139.943 41.6875 139.396 40.6042C139.318 40.3229 138.562 38.9375 137.01 37.8021C136.422 37.4062 135.385 36.875 134.417 36.3125L74.099 1.43228C72.8854 0.734365 71.5052 0.369783 70.1042 0.390616C68.6979 0.369783 67.3177 0.734365 66.1042 1.43228L10.4479 33.6146C10.3229 33.6927 10.2239 33.7865 10.1146 33.875L9.41145 34.276C7.52082 35.2812 4.55728 36.8125 2.94791 38.0365L2.8177 38.1354C2.79166 38.151 2.77082 38.1667 2.74999 38.1823C2.69791 38.2292 2.65624 38.276 2.60416 38.3281C2.01041 38.8229 1.51041 39.401 1.11978 40.0521C1.10936 40.0625 1.10416 40.0729 1.09374 40.0833H1.09895C0.447907 41.1719 0.104156 42.4167 0.104156 43.6823V70.0521C0.104156 70.7552 0.473948 71.401 1.08332 71.75L11.3073 77.6667C11.9114 78.0156 12.6614 78.0156 13.2604 77.6667C13.8698 77.3177 14.2396 76.6719 14.2396 75.9687V52.1875C14.2396 49.3854 15.7344 46.7969 18.1562 45.401L66.2812 17.6614V17.6667V17.6614Z" fill="#6E468F"/>
<path d="M163.501 57.5098C165.762 57.5098 167.97 57.8431 170.126 58.5098C172.293 59.166 173.902 59.8118 174.96 60.4473L176.481 61.4681L172.626 69.0723C172.319 68.8639 171.897 68.6035 171.356 68.2806C170.814 67.9629 169.798 67.5306 168.314 66.9889C166.824 66.4473 165.444 66.1764 164.168 66.1764C162.585 66.1764 161.361 66.5202 160.501 67.1973C159.637 67.8639 159.21 68.7754 159.21 69.9264C159.21 70.4993 159.408 71.0306 159.814 71.5306C160.215 72.0202 160.902 72.541 161.876 73.0931C162.861 73.6504 163.72 74.1035 164.46 74.4473C165.21 74.7806 166.361 75.2806 167.918 75.9473C170.611 77.1035 172.908 78.6712 174.814 80.6556C176.731 82.6296 177.689 84.8639 177.689 87.3639C177.689 89.7546 177.257 91.8431 176.397 93.6348C175.533 95.4264 174.356 96.8327 172.856 97.8431C171.356 98.8587 169.689 99.6087 167.856 100.093C166.033 100.577 164.064 100.822 161.939 100.822C160.116 100.822 158.324 100.635 156.564 100.26C154.814 99.9004 153.34 99.4421 152.147 98.8848C150.965 98.3327 149.902 97.7806 148.96 97.2389C148.012 96.6973 147.324 96.2389 146.897 95.8639L146.231 95.3014L151.001 87.3014C151.402 87.6348 151.96 88.0671 152.668 88.5931C153.376 89.1243 154.632 89.8223 156.439 90.6973C158.241 91.5723 159.84 92.0098 161.231 92.0098C165.241 92.0098 167.251 90.6452 167.251 87.9056C167.251 87.3379 167.106 86.8119 166.814 86.3223C166.533 85.8223 166.027 85.3327 165.293 84.8431C164.569 84.3587 163.929 83.9785 163.376 83.6973C162.819 83.4056 161.908 82.9629 160.647 82.3639C159.382 81.7702 158.444 81.3223 157.835 81.0306C155.293 79.7806 153.324 78.2181 151.939 76.3431C150.564 74.4681 149.876 72.4473 149.876 70.2806C149.876 66.5306 151.257 63.4681 154.022 61.0931C156.798 58.7077 159.96 57.5098 163.501 57.5098Z" fill="#463E4A"/>
<path d="M182.147 100.072V56.489H191.105V76.8223H191.209C193.542 74.489 196.027 73.3223 198.667 73.3223C199.943 73.3223 201.214 73.4994 202.48 73.8431C203.756 74.1765 204.97 74.6973 206.126 75.4056C207.292 76.114 208.235 77.1244 208.959 78.4265C209.693 79.7181 210.063 81.2285 210.063 82.9473V100.072H201.084V85.3848C201.084 84.0254 200.652 82.8431 199.792 81.8431C198.928 80.8327 197.813 80.3223 196.438 80.3223C195.074 80.3223 193.845 80.8431 192.751 81.8848C191.652 82.9265 191.105 84.0931 191.105 85.3848V100.072H182.147Z" fill="#463E4A"/>
<path d="M217.401 96.8639C214.969 94.2129 213.755 90.9629 213.755 87.1139C213.755 83.2546 214.969 79.9889 217.401 77.3223C219.828 74.6556 222.922 73.3223 226.672 73.3223C230.115 73.3223 232.953 74.4056 235.193 76.5723V74.0723H244.151V100.072H235.297V97.1348H235.193C232.953 99.5931 230.115 100.822 226.672 100.822C222.922 100.822 219.828 99.5046 217.401 96.8639ZM225.026 82.6973C223.86 83.8535 223.276 85.3223 223.276 87.1139C223.276 88.8952 223.828 90.3535 224.943 91.4889C226.068 92.6139 227.537 93.1764 229.36 93.1764C231.11 93.1764 232.547 92.6087 233.672 91.4681C234.808 90.3171 235.38 88.8587 235.38 87.0931C235.38 85.3171 234.797 83.8535 233.63 82.6973C232.474 81.5462 231.052 80.9681 229.36 80.9681C227.636 80.9681 226.193 81.5462 225.026 82.6973Z" fill="#463E4A"/>
<path d="M250.229 100.072V74.0723H259.187V77.8223H259.291C259.359 77.6973 259.468 77.5306 259.625 77.3223C259.776 77.1139 260.104 76.7598 260.604 76.2598C261.114 75.7493 261.656 75.291 262.229 74.8848C262.812 74.4837 263.552 74.1243 264.458 73.8014C265.375 73.4837 266.302 73.3223 267.25 73.3223C268.234 73.3223 269.198 73.4629 270.145 73.7389C271.088 74.0046 271.776 74.2702 272.208 74.5306L272.916 74.9473L269.166 82.5514C268.052 81.5931 266.505 81.1139 264.52 81.1139C263.437 81.1139 262.505 81.3587 261.729 81.8431C260.948 82.3171 260.401 82.8952 260.083 83.5723C259.76 84.2389 259.531 84.8118 259.395 85.2806C259.255 85.7546 259.187 86.1243 259.187 86.3848V100.072H250.229Z" fill="#463E4A"/>
<path d="M301.747 88.3223H282.893C282.893 90.1452 283.482 91.4993 284.664 92.3848C285.857 93.2598 287.143 93.6973 288.518 93.6973C289.976 93.6973 291.127 93.5046 291.976 93.1139C292.82 92.7285 293.778 91.9577 294.851 90.8014L301.351 94.0514C298.643 98.5671 294.148 100.822 287.872 100.822C283.956 100.822 280.591 99.4837 277.789 96.8014C274.982 94.1243 273.581 90.8952 273.581 87.1139C273.581 83.3223 274.982 80.0827 277.789 77.3848C280.591 74.6764 283.956 73.3223 287.872 73.3223C291.982 73.3223 295.331 74.5202 297.914 76.9056C300.508 79.2806 301.81 82.6764 301.81 87.0931C301.81 87.7077 301.789 88.1139 301.747 88.3223ZM283.164 83.3431H293.039C292.831 81.9993 292.294 80.9629 291.435 80.2389C290.57 79.5202 289.466 79.1556 288.122 79.1556C286.633 79.1556 285.445 79.5462 284.56 80.3223C283.685 81.0879 283.216 82.0931 283.164 83.3431Z" fill="#463E4A"/>
<path d="M306.001 58.2806H318.981C322.897 58.2806 326.012 59.114 328.335 60.7806C330.668 62.4473 331.835 65.1556 331.835 68.9056C331.835 73.1036 330.095 76.0931 326.626 77.8848C332.569 78.9265 335.543 82.4421 335.543 88.4265C335.543 91.9421 334.324 94.7598 331.897 96.8848C329.465 99.0098 326.116 100.072 321.856 100.072H306.001V58.2806ZM315.522 74.6348H316.293C318.418 74.6348 320.001 74.2702 321.043 73.5306C322.095 72.7806 322.626 71.5671 322.626 69.8848C322.626 67.0411 320.512 65.614 316.293 65.614H315.522V74.6348ZM315.522 92.7181H318.522C323.173 92.7181 325.501 91.1713 325.501 88.0723C325.501 86.2129 324.918 84.8796 323.751 84.0723C322.585 83.2546 320.84 82.8431 318.522 82.8431H315.522V92.7181Z" fill="#463E4A"/>
<path d="M342.197 96.9889C339.306 94.4212 337.863 91.1296 337.863 87.1139C337.863 83.0879 339.363 79.7806 342.363 77.1973C345.374 74.6139 349.093 73.3223 353.509 73.3223C357.869 73.3223 361.54 74.6243 364.53 77.2181C367.53 79.8171 369.03 83.1087 369.03 87.0931C369.03 91.0827 367.561 94.3639 364.634 96.9473C361.718 99.5306 358.009 100.822 353.509 100.822C348.853 100.822 345.082 99.5462 342.197 96.9889ZM349.134 82.6973C347.968 83.8535 347.384 85.3223 347.384 87.1139C347.384 88.8952 347.936 90.3535 349.051 91.4889C350.176 92.6139 351.645 93.1764 353.468 93.1764C355.218 93.1764 356.655 92.6087 357.78 91.4681C358.915 90.3171 359.488 88.8587 359.488 87.0931C359.488 85.3171 358.905 83.8535 357.738 82.6973C356.582 81.5462 355.16 80.9681 353.468 80.9681C351.744 80.9681 350.301 81.5462 349.134 82.6973Z" fill="#463E4A"/>
<path d="M403.326 100.072H392.472L386.743 92.7181L381.014 100.072H370.181L381.285 86.4889L371.743 74.0723H382.243L386.743 80.1139L391.264 74.0723H401.743L392.222 86.4889L403.326 100.072Z" fill="#463E4A"/>
</svg>
