<svg xmlns="http://www.w3.org/2000/svg" xmlns:xlink="http://www.w3.org/1999/xlink" width="500" zoomAndPan="magnify" viewBox="0 0 375 374.999991" height="500" preserveAspectRatio="xMidYMid meet" version="1.0"><defs><clipPath id="id1"><path d="M 109.597656 98.378906 L 265.398438 98.378906 L 265.398438 276.878906 L 109.597656 276.878906 Z M 109.597656 98.378906 " clip-rule="nonzero"/></clipPath></defs><path fill="#ad4ea4" d="M 137.03125 158.328125 C 137.347656 157.746094 137.761719 157.171875 138.625 156.734375 L 150.976562 149.578125 C 151.148438 149.480469 151.332031 149.40625 151.527344 149.359375 C 151.585938 149.34375 151.648438 149.34375 151.714844 149.332031 C 151.84375 149.308594 151.972656 149.289062 152.101562 149.289062 L 152.125 149.289062 L 152.125 149.292969 C 152.488281 149.300781 152.847656 149.398438 153.167969 149.582031 L 180.960938 165.671875 L 180.984375 165.625 L 183.226562 166.925781 C 185.933594 168.492188 189.257812 168.492188 191.964844 166.925781 L 204.117188 159.894531 C 204.789062 159.5 205.203125 158.777344 205.203125 157.996094 C 205.203125 157.210938 204.789062 156.488281 204.117188 156.097656 L 191.964844 149.070312 C 189.257812 147.503906 185.933594 147.503906 183.226562 149.070312 L 180.300781 150.761719 C 179.625 151.152344 178.796875 151.152344 178.121094 150.761719 L 166.804688 144.210938 C 166.128906 143.820312 165.714844 143.097656 165.714844 142.316406 C 165.714844 141.53125 166.128906 140.808594 166.804688 140.417969 L 183.226562 130.910156 C 185.933594 129.34375 189.257812 129.34375 191.964844 130.910156 L 232.195312 154.203125 C 235.109375 155.886719 235.109375 160.101562 232.195312 161.789062 L 191.964844 185.078125 C 189.257812 186.644531 185.933594 186.644531 183.226562 185.078125 L 152.125 167.074219 L 152.125 208.089844 L 162.117188 213.894531 L 183.226562 226.152344 C 183.898438 226.539062 184.609375 226.832031 185.351562 227.035156 C 187.582031 227.625 189.960938 227.308594 191.964844 226.152344 L 220.886719 209.410156 C 222.238281 208.628906 223.070312 207.179688 223.070312 205.617188 L 223.070312 181.707031 C 223.070312 180.925781 223.488281 180.199219 224.160156 179.8125 L 235.472656 173.257812 C 236.152344 172.867188 236.984375 172.867188 237.660156 173.257812 C 238.335938 173.648438 238.75 174.375 238.75 175.15625 L 238.75 214.695312 C 238.75 216.261719 237.917969 217.703125 236.566406 218.492188 L 191.964844 244.3125 C 190.65625 245.070312 189.167969 245.46875 187.65625 245.480469 L 187.625 245.480469 C 187.414062 245.480469 187.199219 245.457031 186.988281 245.445312 C 186.820312 245.433594 186.65625 245.433594 186.492188 245.414062 C 186.265625 245.382812 186.042969 245.328125 185.824219 245.285156 C 185.671875 245.25 185.519531 245.230469 185.371094 245.195312 C 185.128906 245.132812 184.894531 245.039062 184.664062 244.957031 C 184.53125 244.90625 184.402344 244.875 184.28125 244.828125 C 183.921875 244.679688 183.566406 244.507812 183.234375 244.3125 L 144.75 222.035156 L 138.652344 218.566406 C 137.285156 217.789062 136.4375 216.335938 136.4375 214.757812 L 136.4375 160.523438 C 136.4375 159.738281 136.652344 158.984375 137.03125 158.328125 " fill-opacity="1" fill-rule="nonzero"/><g clip-path="url(#id1)"><path fill="#6e468f" d="M 183.335938 117.808594 C 184.632812 117.0625 186.097656 116.660156 187.597656 116.644531 C 189.089844 116.660156 190.558594 117.0625 191.855469 117.808594 L 245.601562 148.925781 C 248.296875 150.488281 249.957031 153.371094 249.957031 156.492188 L 249.957031 218.726562 C 249.957031 221.847656 248.296875 224.730469 245.601562 226.289062 L 191.855469 257.402344 C 190.539062 258.167969 189.050781 258.570312 187.535156 258.578125 C 186.015625 258.570312 184.523438 258.167969 183.207031 257.410156 L 129.699219 226.429688 C 127.003906 224.871094 125.34375 221.988281 125.34375 218.867188 L 125.34375 200.882812 C 125.347656 200.101562 124.925781 199.378906 124.257812 198.988281 L 112.863281 192.394531 C 112.191406 192.003906 111.355469 192.003906 110.6875 192.394531 C 110.011719 192.785156 109.597656 193.507812 109.597656 194.289062 L 109.597656 227.78125 C 109.601562 229.210938 109.957031 230.617188 110.625 231.875 C 110.796875 232.699219 111.691406 233.671875 112.960938 234.667969 C 112.984375 234.691406 113.019531 234.714844 113.050781 234.742188 C 116.269531 237.25 121.59375 239.84375 122.539062 240.394531 L 183.207031 275.515625 C 184.566406 276.296875 186.113281 276.699219 187.679688 276.683594 L 187.75 276.683594 L 187.75 276.675781 C 189.191406 276.640625 190.605469 276.234375 191.855469 275.515625 L 261.238281 235.34375 C 263.933594 233.789062 265.59375 230.902344 265.597656 227.78125 L 265.597656 147.441406 C 265.597656 146.039062 265.417969 144.609375 264.804688 143.402344 C 264.71875 143.085938 263.878906 141.542969 262.148438 140.273438 C 261.492188 139.832031 260.339844 139.242188 259.257812 138.613281 L 192.050781 99.707031 C 190.695312 98.925781 189.15625 98.523438 187.59375 98.542969 C 186.027344 98.523438 184.492188 98.925781 183.140625 99.707031 L 121.125 135.605469 C 120.984375 135.691406 120.875 135.792969 120.753906 135.894531 L 119.964844 136.34375 C 117.859375 137.464844 114.554688 139.171875 112.765625 140.539062 L 112.617188 140.648438 C 112.59375 140.667969 112.570312 140.683594 112.542969 140.699219 C 112.484375 140.753906 112.441406 140.804688 112.378906 140.859375 C 111.722656 141.414062 111.160156 142.0625 110.730469 142.785156 C 110.714844 142.792969 110.710938 142.808594 110.699219 142.820312 L 110.703125 142.820312 C 109.980469 144.035156 109.59375 145.421875 109.59375 146.835938 L 109.59375 176.25 C 109.59375 177.035156 110.007812 177.753906 110.6875 178.144531 L 122.082031 184.746094 C 122.75 185.128906 123.585938 185.128906 124.257812 184.746094 C 124.933594 184.355469 125.347656 183.632812 125.347656 182.851562 L 125.347656 156.324219 C 125.347656 153.199219 127.011719 150.308594 129.710938 148.75 L 183.335938 117.808594 L 183.335938 117.8125 Z M 183.335938 117.808594 " fill-opacity="1" fill-rule="nonzero"/></g></svg>