<svg xmlns="http://www.w3.org/2000/svg" xmlns:xlink="http://www.w3.org/1999/xlink" width="500" zoomAndPan="magnify" viewBox="0 0 375 374.999991" height="500" preserveAspectRatio="xMidYMid meet" version="1.0"><defs><g/><clipPath id="id1"><path d="M 109.597656 98.378906 L 265.398438 98.378906 L 265.398438 276.878906 L 109.597656 276.878906 Z M 109.597656 98.378906 " clip-rule="nonzero"/></clipPath></defs><path fill="#ad4ea4" d="M 137.03125 158.328125 C 137.347656 157.746094 137.761719 157.171875 138.625 156.734375 L 150.976562 149.578125 C 151.148438 149.480469 151.332031 149.40625 151.527344 149.359375 C 151.585938 149.34375 151.648438 149.34375 151.714844 149.332031 C 151.84375 149.308594 151.972656 149.289062 152.101562 149.289062 L 152.125 149.289062 L 152.125 149.292969 C 152.488281 149.300781 152.847656 149.398438 153.167969 149.582031 L 180.960938 165.671875 L 180.984375 165.625 L 183.226562 166.925781 C 185.933594 168.492188 189.257812 168.492188 191.964844 166.925781 L 204.117188 159.894531 C 204.789062 159.5 205.203125 158.777344 205.203125 157.996094 C 205.203125 157.210938 204.789062 156.488281 204.117188 156.097656 L 191.964844 149.070312 C 189.257812 147.503906 185.933594 147.503906 183.226562 149.070312 L 180.300781 150.761719 C 179.625 151.152344 178.796875 151.152344 178.121094 150.761719 L 166.804688 144.210938 C 166.128906 143.820312 165.714844 143.097656 165.714844 142.316406 C 165.714844 141.53125 166.128906 140.808594 166.804688 140.417969 L 183.226562 130.910156 C 185.933594 129.34375 189.257812 129.34375 191.964844 130.910156 L 232.195312 154.203125 C 235.109375 155.886719 235.109375 160.101562 232.195312 161.789062 L 191.964844 185.078125 C 189.257812 186.644531 185.933594 186.644531 183.226562 185.078125 L 152.125 167.074219 L 152.125 208.089844 L 162.117188 213.894531 L 183.226562 226.152344 C 183.898438 226.539062 184.609375 226.832031 185.351562 227.035156 C 187.582031 227.625 189.960938 227.308594 191.964844 226.152344 L 220.886719 209.410156 C 222.238281 208.628906 223.070312 207.179688 223.070312 205.617188 L 223.070312 181.707031 C 223.070312 180.925781 223.488281 180.199219 224.160156 179.8125 L 235.472656 173.257812 C 236.152344 172.867188 236.984375 172.867188 237.660156 173.257812 C 238.335938 173.648438 238.75 174.375 238.75 175.15625 L 238.75 214.695312 C 238.75 216.261719 237.917969 217.703125 236.566406 218.492188 L 191.964844 244.3125 C 190.65625 245.070312 189.167969 245.46875 187.65625 245.480469 L 187.625 245.480469 C 187.414062 245.480469 187.199219 245.457031 186.988281 245.445312 C 186.820312 245.433594 186.65625 245.433594 186.492188 245.414062 C 186.265625 245.382812 186.042969 245.328125 185.824219 245.285156 C 185.671875 245.25 185.519531 245.230469 185.371094 245.195312 C 185.128906 245.132812 184.894531 245.039062 184.664062 244.957031 C 184.53125 244.90625 184.402344 244.875 184.28125 244.828125 C 183.921875 244.679688 183.566406 244.507812 183.234375 244.3125 L 144.75 222.035156 L 138.652344 218.566406 C 137.285156 217.789062 136.4375 216.335938 136.4375 214.757812 L 136.4375 160.523438 C 136.4375 159.738281 136.652344 158.984375 137.03125 158.328125 " fill-opacity="1" fill-rule="nonzero"/><g clip-path="url(#id1)"><path fill="#6e468f" d="M 183.335938 117.808594 C 184.632812 117.0625 186.097656 116.660156 187.597656 116.644531 C 189.089844 116.660156 190.558594 117.0625 191.855469 117.808594 L 245.601562 148.925781 C 248.296875 150.488281 249.957031 153.371094 249.957031 156.492188 L 249.957031 218.726562 C 249.957031 221.847656 248.296875 224.730469 245.601562 226.289062 L 191.855469 257.402344 C 190.539062 258.167969 189.050781 258.570312 187.535156 258.578125 C 186.015625 258.570312 184.523438 258.167969 183.207031 257.410156 L 129.699219 226.429688 C 127.003906 224.871094 125.34375 221.988281 125.34375 218.867188 L 125.34375 200.882812 C 125.347656 200.101562 124.925781 199.378906 124.257812 198.988281 L 112.863281 192.394531 C 112.191406 192.003906 111.355469 192.003906 110.6875 192.394531 C 110.011719 192.785156 109.597656 193.507812 109.597656 194.289062 L 109.597656 227.78125 C 109.601562 229.210938 109.957031 230.617188 110.625 231.875 C 110.796875 232.699219 111.691406 233.671875 112.960938 234.667969 C 112.984375 234.691406 113.019531 234.714844 113.050781 234.742188 C 116.269531 237.25 121.59375 239.84375 122.539062 240.394531 L 183.207031 275.515625 C 184.566406 276.296875 186.113281 276.699219 187.679688 276.683594 L 187.75 276.683594 L 187.75 276.675781 C 189.191406 276.640625 190.605469 276.234375 191.855469 275.515625 L 261.238281 235.34375 C 263.933594 233.789062 265.59375 230.902344 265.597656 227.78125 L 265.597656 147.441406 C 265.597656 146.039062 265.417969 144.609375 264.804688 143.402344 C 264.71875 143.085938 263.878906 141.542969 262.148438 140.273438 C 261.492188 139.832031 260.339844 139.242188 259.257812 138.613281 L 192.050781 99.707031 C 190.695312 98.925781 189.15625 98.523438 187.59375 98.542969 C 186.027344 98.523438 184.492188 98.925781 183.140625 99.707031 L 121.125 135.605469 C 120.984375 135.691406 120.875 135.792969 120.753906 135.894531 L 119.964844 136.34375 C 117.859375 137.464844 114.554688 139.171875 112.765625 140.539062 L 112.617188 140.648438 C 112.59375 140.667969 112.570312 140.683594 112.542969 140.699219 C 112.484375 140.753906 112.441406 140.804688 112.378906 140.859375 C 111.722656 141.414062 111.160156 142.0625 110.730469 142.785156 C 110.714844 142.792969 110.710938 142.808594 110.699219 142.820312 L 110.703125 142.820312 C 109.980469 144.035156 109.59375 145.421875 109.59375 146.835938 L 109.59375 176.25 C 109.59375 177.035156 110.007812 177.753906 110.6875 178.144531 L 122.082031 184.746094 C 122.75 185.128906 123.585938 185.128906 124.257812 184.746094 C 124.933594 184.355469 125.347656 183.632812 125.347656 182.851562 L 125.347656 156.324219 C 125.347656 153.199219 127.011719 150.308594 129.710938 148.75 L 183.335938 117.808594 L 183.335938 117.8125 Z M 183.335938 117.808594 " fill-opacity="1" fill-rule="nonzero"/></g><g fill="#463e4a" fill-opacity="1"><g transform="translate(90.656784, 317.058846)"><g><path d="M 13.828125 -31.921875 C 15.523438 -31.921875 17.179688 -31.671875 18.796875 -31.171875 C 20.421875 -30.679688 21.628906 -30.195312 22.421875 -29.71875 L 23.5625 -28.953125 L 20.671875 -23.25 C 20.441406 -23.40625 20.125 -23.601562 19.71875 -23.84375 C 19.3125 -24.082031 18.550781 -24.40625 17.4375 -24.8125 C 16.320312 -25.21875 15.285156 -25.421875 14.328125 -25.421875 C 13.140625 -25.421875 12.222656 -25.164062 11.578125 -24.65625 C 10.929688 -24.15625 10.609375 -23.472656 10.609375 -22.609375 C 10.609375 -22.179688 10.757812 -21.78125 11.0625 -21.40625 C 11.363281 -21.039062 11.878906 -20.648438 12.609375 -20.234375 C 13.347656 -19.816406 13.992188 -19.476562 14.546875 -19.21875 C 15.109375 -18.96875 15.972656 -18.59375 17.140625 -18.09375 C 19.160156 -17.226562 20.882812 -16.050781 22.3125 -14.5625 C 23.75 -13.082031 24.46875 -11.40625 24.46875 -9.53125 C 24.46875 -7.738281 24.144531 -6.171875 23.5 -4.828125 C 22.851562 -3.484375 21.96875 -2.429688 20.84375 -1.671875 C 19.71875 -0.910156 18.46875 -0.347656 17.09375 0.015625 C 15.726562 0.378906 14.25 0.5625 12.65625 0.5625 C 11.289062 0.5625 9.945312 0.421875 8.625 0.140625 C 7.3125 -0.128906 6.207031 -0.472656 5.3125 -0.890625 C 4.425781 -1.304688 3.628906 -1.71875 2.921875 -2.125 C 2.210938 -2.53125 1.695312 -2.875 1.375 -3.15625 L 0.875 -3.578125 L 4.453125 -9.578125 C 4.753906 -9.328125 5.171875 -9.003906 5.703125 -8.609375 C 6.234375 -8.210938 7.175781 -7.6875 8.53125 -7.03125 C 9.882812 -6.375 11.082031 -6.046875 12.125 -6.046875 C 15.132812 -6.046875 16.640625 -7.070312 16.640625 -9.125 C 16.640625 -9.550781 16.53125 -9.945312 16.3125 -10.3125 C 16.101562 -10.6875 15.722656 -11.054688 15.171875 -11.421875 C 14.628906 -11.785156 14.148438 -12.070312 13.734375 -12.28125 C 13.316406 -12.5 12.632812 -12.832031 11.6875 -13.28125 C 10.738281 -13.726562 10.035156 -14.0625 9.578125 -14.28125 C 7.671875 -15.21875 6.195312 -16.390625 5.15625 -17.796875 C 4.125 -19.203125 3.609375 -20.71875 3.609375 -22.34375 C 3.609375 -25.15625 4.644531 -27.453125 6.71875 -29.234375 C 8.800781 -31.023438 11.171875 -31.921875 13.828125 -31.921875 Z M 13.828125 -31.921875 "/></g></g></g><g fill="#463e4a" fill-opacity="1"><g transform="translate(116.187567, 317.058846)"><g><path d="M 2.28125 0 L 2.28125 -32.6875 L 9 -32.6875 L 9 -17.4375 L 9.078125 -17.4375 C 10.828125 -19.1875 12.691406 -20.0625 14.671875 -20.0625 C 15.628906 -20.0625 16.582031 -19.929688 17.53125 -19.671875 C 18.488281 -19.421875 19.398438 -19.03125 20.265625 -18.5 C 21.140625 -17.96875 21.847656 -17.210938 22.390625 -16.234375 C 22.941406 -15.265625 23.21875 -14.132812 23.21875 -12.84375 L 23.21875 0 L 16.484375 0 L 16.484375 -11.015625 C 16.484375 -12.035156 16.160156 -12.921875 15.515625 -13.671875 C 14.867188 -14.429688 14.03125 -14.8125 13 -14.8125 C 11.976562 -14.8125 11.054688 -14.421875 10.234375 -13.640625 C 9.410156 -12.859375 9 -11.984375 9 -11.015625 L 9 0 Z M 2.28125 0 "/></g></g></g><g fill="#463e4a" fill-opacity="1"><g transform="translate(141.300435, 317.058846)"><g><path d="M 3.609375 -2.40625 C 1.785156 -4.394531 0.875 -6.832031 0.875 -9.71875 C 0.875 -12.613281 1.785156 -15.0625 3.609375 -17.0625 C 5.429688 -19.0625 7.75 -20.0625 10.5625 -20.0625 C 13.144531 -20.0625 15.273438 -19.25 16.953125 -17.625 L 16.953125 -19.5 L 23.671875 -19.5 L 23.671875 0 L 17.03125 0 L 17.03125 -2.203125 L 16.953125 -2.203125 C 15.273438 -0.359375 13.144531 0.5625 10.5625 0.5625 C 7.75 0.5625 5.429688 -0.425781 3.609375 -2.40625 Z M 9.328125 -13.03125 C 8.453125 -12.164062 8.015625 -11.0625 8.015625 -9.71875 C 8.015625 -8.382812 8.429688 -7.289062 9.265625 -6.4375 C 10.109375 -5.59375 11.210938 -5.171875 12.578125 -5.171875 C 13.890625 -5.171875 14.96875 -5.597656 15.8125 -6.453125 C 16.664062 -7.316406 17.09375 -8.410156 17.09375 -9.734375 C 17.09375 -11.066406 16.65625 -12.164062 15.78125 -13.03125 C 14.914062 -13.894531 13.847656 -14.328125 12.578125 -14.328125 C 11.285156 -14.328125 10.203125 -13.894531 9.328125 -13.03125 Z M 9.328125 -13.03125 "/></g></g></g><g fill="#463e4a" fill-opacity="1"><g transform="translate(167.249134, 317.058846)"><g><path d="M 2.28125 0 L 2.28125 -19.5 L 9 -19.5 L 9 -16.6875 L 9.078125 -16.6875 C 9.128906 -16.78125 9.210938 -16.90625 9.328125 -17.0625 C 9.441406 -17.21875 9.6875 -17.484375 10.0625 -17.859375 C 10.445312 -18.242188 10.851562 -18.585938 11.28125 -18.890625 C 11.71875 -19.191406 12.273438 -19.460938 12.953125 -19.703125 C 13.640625 -19.941406 14.335938 -20.0625 15.046875 -20.0625 C 15.785156 -20.0625 16.507812 -19.957031 17.21875 -19.75 C 17.925781 -19.550781 18.441406 -19.351562 18.765625 -19.15625 L 19.296875 -18.84375 L 16.484375 -13.140625 C 15.648438 -13.859375 14.488281 -14.21875 13 -14.21875 C 12.1875 -14.21875 11.488281 -14.035156 10.90625 -13.671875 C 10.320312 -13.316406 9.910156 -12.882812 9.671875 -12.375 C 9.429688 -11.875 9.257812 -11.445312 9.15625 -11.09375 C 9.050781 -10.738281 9 -10.460938 9 -10.265625 L 9 0 Z M 2.28125 0 "/></g></g></g><g fill="#463e4a" fill-opacity="1"><g transform="translate(186.169271, 317.058846)"><g><path d="M 22 -8.8125 L 7.859375 -8.8125 C 7.859375 -7.445312 8.300781 -6.429688 9.1875 -5.765625 C 10.082031 -5.109375 11.046875 -4.78125 12.078125 -4.78125 C 13.171875 -4.78125 14.035156 -4.925781 14.671875 -5.21875 C 15.304688 -5.507812 16.023438 -6.085938 16.828125 -6.953125 L 21.703125 -4.515625 C 19.671875 -1.128906 16.300781 0.5625 11.59375 0.5625 C 8.65625 0.5625 6.132812 -0.441406 4.03125 -2.453125 C 1.925781 -4.460938 0.875 -6.882812 0.875 -9.71875 C 0.875 -12.5625 1.925781 -14.992188 4.03125 -17.015625 C 6.132812 -19.046875 8.65625 -20.0625 11.59375 -20.0625 C 14.675781 -20.0625 17.1875 -19.164062 19.125 -17.375 C 21.070312 -15.59375 22.046875 -13.046875 22.046875 -9.734375 C 22.046875 -9.273438 22.03125 -8.96875 22 -8.8125 Z M 8.0625 -12.546875 L 15.46875 -12.546875 C 15.3125 -13.554688 14.910156 -14.332031 14.265625 -14.875 C 13.617188 -15.414062 12.789062 -15.6875 11.78125 -15.6875 C 10.664062 -15.6875 9.773438 -15.394531 9.109375 -14.8125 C 8.453125 -14.238281 8.101562 -13.484375 8.0625 -12.546875 Z M 8.0625 -12.546875 "/></g></g></g><g fill="#463e4a" fill-opacity="1"><g transform="translate(209.078591, 317.058846)"><g><path d="M 2.28125 -31.34375 L 12.015625 -31.34375 C 14.953125 -31.34375 17.289062 -30.71875 19.03125 -29.46875 C 20.78125 -28.21875 21.65625 -26.1875 21.65625 -23.375 C 21.65625 -20.226562 20.351562 -17.984375 17.75 -16.640625 C 22.207031 -15.859375 24.4375 -13.222656 24.4375 -8.734375 C 24.4375 -6.097656 23.523438 -3.984375 21.703125 -2.390625 C 19.878906 -0.796875 17.367188 0 14.171875 0 L 2.28125 0 Z M 9.421875 -19.078125 L 10 -19.078125 C 11.59375 -19.078125 12.78125 -19.351562 13.5625 -19.90625 C 14.351562 -20.46875 14.75 -21.378906 14.75 -22.640625 C 14.75 -24.773438 13.164062 -25.84375 10 -25.84375 L 9.421875 -25.84375 Z M 9.421875 -5.515625 L 11.671875 -5.515625 C 15.160156 -5.515625 16.90625 -6.675781 16.90625 -9 C 16.90625 -10.394531 16.46875 -11.394531 15.59375 -12 C 14.71875 -12.613281 13.410156 -12.921875 11.671875 -12.921875 L 9.421875 -12.921875 Z M 9.421875 -5.515625 "/></g></g></g><g fill="#463e4a" fill-opacity="1"><g transform="translate(234.381418, 317.058846)"><g><path d="M 4.125 -2.3125 C 1.957031 -4.238281 0.875 -6.707031 0.875 -9.71875 C 0.875 -12.738281 2 -15.21875 4.25 -17.15625 C 6.507812 -19.09375 9.296875 -20.0625 12.609375 -20.0625 C 15.878906 -20.0625 18.632812 -19.085938 20.875 -17.140625 C 23.125 -15.191406 24.25 -12.722656 24.25 -9.734375 C 24.25 -6.742188 23.148438 -4.28125 20.953125 -2.34375 C 18.765625 -0.40625 15.984375 0.5625 12.609375 0.5625 C 9.117188 0.5625 6.289062 -0.394531 4.125 -2.3125 Z M 9.328125 -13.03125 C 8.453125 -12.164062 8.015625 -11.0625 8.015625 -9.71875 C 8.015625 -8.382812 8.429688 -7.289062 9.265625 -6.4375 C 10.109375 -5.59375 11.210938 -5.171875 12.578125 -5.171875 C 13.890625 -5.171875 14.96875 -5.597656 15.8125 -6.453125 C 16.664062 -7.316406 17.09375 -8.410156 17.09375 -9.734375 C 17.09375 -11.066406 16.65625 -12.164062 15.78125 -13.03125 C 14.914062 -13.894531 13.847656 -14.328125 12.578125 -14.328125 C 11.285156 -14.328125 10.203125 -13.894531 9.328125 -13.03125 Z M 9.328125 -13.03125 "/></g></g></g><g fill="#463e4a" fill-opacity="1"><g transform="translate(259.494286, 317.058846)"><g><path d="M 24.859375 0 L 16.71875 0 L 12.421875 -5.515625 L 8.125 0 L 0 0 L 8.328125 -10.1875 L 1.171875 -19.5 L 9.046875 -19.5 L 12.421875 -14.96875 L 15.8125 -19.5 L 23.671875 -19.5 L 16.53125 -10.1875 Z M 24.859375 0 "/></g></g></g></svg>